{"glyphs":{"0":{"ha":769,"x_min":0,"x_max":0,"o":"m 385 985 b 39 485 186 985 39 777 b 385 -15 39 192 186 -15 b 730 485 584 -15 730 192 b 385 985 730 777 584 985 z m 385 225 b 314 485 344 225 314 333 b 385 744 314 636 344 744 b 456 485 425 744 456 636 b 385 225 456 333 425 225 z "},"1":{"ha":442,"x_min":0,"x_max":0,"o":"m 33 823 l 33 621 l 134 656 l 134 0 l 392 0 l 392 969 l 268 969 z "},"2":{"ha":629,"x_min":0,"x_max":0,"o":"m 574 729 b 276 985 574 882 455 985 b 62 925 209 985 123 969 l 62 661 b 214 744 91 700 152 744 b 270 687 251 744 270 719 b 42 126 270 548 43 451 l 42 126 l 42 0 l 588 0 l 588 258 l 329 258 b 574 729 395 432 574 542 z "},"3":{"ha":631,"x_min":0,"x_max":0,"o":"m 455 524 b 570 748 527 582 570 657 b 291 985 570 901 431 985 b 57 925 225 985 140 978 l 57 661 b 216 744 87 700 136 744 b 280 685 252 744 280 717 b 149 602 280 628 226 602 l 149 400 b 288 309 257 400 288 359 b 204 225 288 271 264 225 b 42 308 121 225 71 269 l 42 44 b 273 -15 91 3 206 -15 b 592 273 453 -15 592 105 b 455 524 592 388 538 470 z "},"4":{"ha":757,"x_min":0,"x_max":0,"o":"m 678 640 l 421 640 l 421 428 l 326 428 l 436 969 l 187 969 l 28 188 l 421 188 l 421 0 l 678 0 l 678 188 l 719 188 l 719 428 l 678 428 z "},"5":{"ha":633,"x_min":0,"x_max":0,"o":"m 279 631 l 285 699 l 568 699 l 568 969 l 106 969 l 59 427 b 289 332 252 477 289 382 b 194 225 289 278 254 225 b 43 308 110 225 72 269 l 43 44 b 274 -15 92 3 208 -15 b 593 307 454 -15 593 117 b 279 631 593 497 461 623 z "},"6":{"ha":813,"x_min":0,"x_max":0,"o":"m 431 607 b 341 588 411 607 377 601 b 526 744 345 652 400 744 b 710 646 609 744 683 687 l 710 910 b 453 985 654 962 519 985 b 38 390 207 985 38 749 b 406 -15 38 191 137 -15 b 775 296 618 -15 775 112 b 431 607 775 507 594 607 z m 406 225 b 306 315 349 225 306 262 b 406 405 306 368 349 405 b 506 315 464 405 506 368 b 406 225 506 262 464 225 z "},"7":{"ha":750,"x_min":0,"x_max":0,"o":"m 28 729 l 356 729 l 64 0 l 341 0 l 680 845 l 680 969 l 28 969 z "},"8":{"ha":813,"x_min":0,"x_max":0,"o":"m 669 520 b 736 700 711 568 736 630 b 406 986 736 867 596 986 b 77 700 217 986 77 867 b 143 520 77 630 101 568 b 37 296 77 465 37 387 b 406 -15 37 114 194 -15 b 775 296 618 -15 775 114 b 669 520 775 387 735 465 z m 406 744 b 488 676 453 744 488 716 b 406 607 488 635 453 607 b 324 676 359 607 324 635 b 406 744 324 716 359 744 z m 406 225 b 306 315 349 225 306 262 b 406 405 306 368 349 405 b 506 315 464 405 506 368 b 406 225 506 262 464 225 z "},"9":{"ha":813,"x_min":0,"x_max":0,"o":"m 406 985 b 38 673 194 985 38 857 b 382 362 38 462 218 362 b 471 381 402 362 436 368 b 287 225 468 317 413 225 b 102 323 204 225 129 282 l 102 59 b 360 -15 159 7 293 -15 b 775 579 605 -15 775 220 b 406 985 775 778 676 985 z m 406 564 b 306 654 349 564 306 601 b 406 744 306 707 349 744 b 506 654 464 744 506 707 b 406 564 506 601 464 564 z "},"\u0000":{"ha":0,"x_min":0,"x_max":0,"o":""},"\n":{"ha":0,"x_min":0,"x_max":0,"o":""},"\r":{"ha":0,"x_min":0,"x_max":0,"o":""}," ":{"ha":422,"x_min":0,"x_max":0,"o":""},"!":{"ha":365,"x_min":0,"x_max":0,"o":"m 182 -15 b 322 125 259 -15 322 47 b 182 265 322 202 259 265 b 42 125 105 265 42 202 b 182 -15 42 47 105 -15 z m 93 329 l 271 329 l 294 663 l 302 969 l 62 969 l 70 663 z "},"\"":{"ha":531,"x_min":0,"x_max":0,"o":"m 26 946 l 156 642 l 253 688 l 251 985 z m 491 985 l 267 946 l 396 642 l 493 688 z "},"#":{"ha":968,"x_min":0,"x_max":0,"o":"m 912 583 l 940 706 l 850 706 l 908 969 l 667 969 l 609 706 l 455 706 l 513 969 l 273 969 l 215 706 l 125 706 l 97 583 l 187 583 l 144 386 l 54 386 l 26 263 l 116 263 l 58 0 l 299 0 l 357 263 l 511 263 l 453 0 l 693 0 l 751 263 l 841 263 l 869 386 l 779 386 l 822 583 z m 538 386 l 384 386 l 428 583 l 582 583 z "},"$":{"ha":579,"x_min":0,"x_max":0,"o":"m 345 691 b 401 744 345 725 373 744 b 507 700 438 744 476 726 l 507 964 b 351 984 477 973 412 982 l 351 1080 l 228 1080 l 228 971 b 53 729 114 939 53 849 b 229 291 53 525 229 391 b 157 225 229 247 194 225 b 62 256 121 225 88 233 l 39 8 b 220 -15 86 -7 158 -15 b 228 -15 222 -15 225 -15 l 228 -111 l 351 -111 l 351 10 b 540 250 468 58 540 165 b 345 691 540 470 345 584 z "},"%":{"ha":1068,"x_min":0,"x_max":0,"o":"m 620 969 l 322 0 l 445 0 l 744 969 z m 817 522 b 589 253 691 522 589 401 b 817 -15 589 105 691 -15 b 1045 253 943 -15 1045 105 b 817 522 1045 401 943 522 z m 817 108 b 775 253 794 108 775 173 b 817 398 775 333 794 398 b 859 253 840 398 859 333 b 817 108 859 173 840 108 z m 477 716 b 249 984 477 864 375 984 b 21 716 123 984 21 864 b 249 447 21 568 123 447 b 477 716 375 447 477 568 z m 249 571 b 207 716 226 571 207 636 b 249 861 207 796 226 861 b 291 716 272 861 291 796 b 249 571 291 636 272 571 z "},"&":{"ha":878,"x_min":0,"x_max":0,"o":"m 532 787 l 532 585 l 413 585 b 295 656 348 586 295 617 b 414 727 295 695 348 727 l 414 985 b 78 684 228 985 78 850 b 126 529 78 627 95 574 b 38 316 71 471 38 397 b 414 -15 38 133 206 -15 b 532 1 455 -15 495 -9 l 532 -15 l 790 -15 l 790 585 l 838 585 l 838 787 l 532 787 z m 532 312 b 414 242 532 274 479 242 b 295 313 348 242 295 274 b 412 384 295 352 347 383 l 532 384 z "},"'":{"ha":290,"x_min":0,"x_max":0,"o":"m 251 985 l 26 946 l 156 642 l 253 688 z "},"(":{"ha":393,"x_min":0,"x_max":0,"o":"m 409 1049 l 241 1049 b 42 485 121 940 42 754 b 241 -80 42 215 121 29 l 409 -80 b 284 485 305 32 284 271 b 409 1049 284 698 305 937 z "},")":{"ha":393,"x_min":0,"x_max":0,"o":"m 151 1049 l -17 1049 b 108 485 88 937 108 698 b -17 -80 108 271 88 32 l 151 -80 b 350 485 271 29 350 215 b 151 1049 350 754 271 940 z "},"*":{"ha":456,"x_min":0,"x_max":0,"o":"m 296 775 l 333 777 l 424 798 l 407 855 l 389 912 l 301 877 l 271 858 l 280 891 l 287 985 l 168 985 l 175 891 l 183 858 l 153 877 l 66 912 l 48 855 l 31 798 l 122 777 l 159 775 l 130 752 l 69 680 l 117 645 l 165 610 l 215 690 l 227 723 l 240 690 l 289 610 l 338 645 l 386 680 l 325 752 z "},"+":{"ha":656,"x_min":0,"x_max":0,"o":"m 428 585 l 428 780 l 227 780 l 227 585 l 32 585 l 32 384 l 227 384 l 227 189 l 428 189 l 428 384 l 623 384 l 623 585 z "},",":{"ha":347,"x_min":0,"x_max":0,"o":"m 313 125 b 172 265 313 202 250 265 b 32 139 95 265 32 211 b 132 -26 32 29 132 27 b 66 -98 132 -67 96 -83 l 66 -126 b 313 120 207 -104 313 -7 l 312 120 b 313 125 312 122 313 123 z "},"-":{"ha":564,"x_min":0,"x_max":0,"o":"m 532 384 l 532 585 l 32 585 l 32 384 z "},".":{"ha":346,"x_min":0,"x_max":0,"o":"m 172 -15 b 313 125 250 -15 313 47 b 172 265 313 202 250 265 b 32 125 95 265 32 202 b 172 -15 32 47 95 -15 z "},"/":{"ha":561,"x_min":0,"x_max":0,"o":"m 368 969 l 69 0 l 193 0 l 492 969 z "},":":{"ha":360,"x_min":0,"x_max":0,"o":"m 202 499 b 318 660 278 512 330 584 b 157 776 305 737 233 789 b 41 615 80 764 28 692 b 202 499 53 539 125 487 z m 278 111 b 278 309 333 165 333 254 b 80 309 224 364 135 364 b 80 111 25 254 25 165 b 278 111 135 56 224 56 z "},";":{"ha":360,"x_min":0,"x_max":0,"o":"m 179 498 b 320 638 257 498 320 561 b 179 778 320 716 257 778 b 39 638 102 778 39 716 b 179 498 39 561 102 498 z m 179 350 b 39 224 102 350 39 296 b 139 59 39 114 139 112 b 73 -14 139 18 103 2 l 73 -41 b 320 205 214 -20 320 78 l 319 205 b 320 210 319 207 320 208 b 179 350 320 287 257 350 z "},"<":{"ha":715,"x_min":0,"x_max":0,"o":"m 673 791 l 35 586 l 34 586 l 33 585 l 33 384 l 34 384 l 35 384 l 673 179 l 673 391 l 380 485 l 673 579 z "},"=":{"ha":707,"x_min":0,"x_max":0,"o":"m 668 572 l 668 774 l 39 774 l 39 572 z m 668 195 l 668 397 l 39 397 l 39 195 z "},">":{"ha":715,"x_min":0,"x_max":0,"o":"m 681 586 l 680 586 l 42 791 l 42 579 l 334 485 l 42 391 l 42 179 l 680 384 l 681 384 l 681 384 l 681 585 z "},"?":{"ha":571,"x_min":0,"x_max":0,"o":"m 252 985 b 38 925 185 985 99 969 l 38 661 b 176 744 67 700 114 744 b 246 676 219 744 246 708 b 144 329 246 531 99 531 l 321 329 b 550 729 275 522 550 500 b 252 985 550 882 431 985 z m 232 -15 b 373 125 310 -15 373 47 b 232 265 373 202 310 265 b 92 125 155 265 92 202 b 232 -15 92 47 155 -15 z "},"@":{"ha":1083,"x_min":0,"x_max":0,"o":"m 648 689 b 500 759 609 733 557 759 b 278 485 377 759 278 636 b 500 210 278 333 377 210 b 673 312 570 210 632 250 b 798 260 702 269 752 260 b 1052 539 869 260 1052 310 b 575 985 1052 720 911 985 b 33 485 276 985 33 761 b 575 -15 33 208 276 -15 b 908 90 700 -15 816 24 l 824 182 b 575 108 754 136 668 108 b 157 485 344 108 157 277 b 575 861 157 692 344 861 b 929 535 745 861 929 698 b 828 394 929 433 873 394 b 772 489 801 394 772 414 l 772 746 l 648 746 z m 565 384 b 482 485 519 384 482 429 b 565 585 482 540 519 585 b 648 485 611 585 648 540 b 565 384 648 429 611 384 z "},"A":{"ha":797,"x_min":0,"x_max":0,"o":"m 547 0 l 805 0 l 527 968 l 527 969 l 269 969 l 270 968 l -8 0 l 249 0 l 276 95 l 520 95 z m 345 335 l 398 519 l 451 335 z "},"B":{"ha":747,"x_min":0,"x_max":0,"o":"m 642 508 b 702 684 680 556 702 618 b 364 969 702 841 600 969 l 49 969 l 49 0 l 368 0 b 725 300 587 0 725 134 b 642 508 725 381 693 454 z m 306 729 l 375 729 b 439 665 411 729 439 700 b 375 600 439 629 411 600 l 306 600 z m 371 240 l 306 240 l 306 399 l 371 399 b 450 319 415 399 450 363 b 371 240 450 276 415 240 z "},"C":{"ha":689,"x_min":0,"x_max":0,"o":"m 649 256 b 514 225 607 235 565 225 b 289 485 384 225 289 333 b 514 744 289 636 384 744 b 647 714 565 744 604 732 l 647 969 b 514 985 605 979 560 985 b 14 485 226 985 14 777 b 514 -15 14 192 226 -15 b 675 8 571 -15 625 -7 l 649 256 z "},"D":{"ha":754,"x_min":0,"x_max":0,"o":"m 739 485 b 306 969 739 857 472 969 l 49 969 l 49 0 l 306 0 b 739 485 472 0 739 112 z m 306 240 l 306 729 b 464 485 395 729 464 628 b 306 240 464 341 395 240 z "},"E":{"ha":611,"x_min":0,"x_max":0,"o":"m 306 240 l 306 376 l 501 376 l 501 616 l 306 616 l 306 729 l 575 729 l 575 969 l 49 969 l 49 0 l 585 0 l 585 240 z "},"F":{"ha":583,"x_min":0,"x_max":0,"o":"m 575 729 l 575 969 l 49 969 l 49 0 l 306 0 l 306 364 l 501 364 l 501 605 l 306 605 l 306 729 z "},"G":{"ha":860,"x_min":0,"x_max":0,"o":"m 457 339 l 567 339 l 567 231 b 514 225 550 227 532 225 b 289 485 384 225 289 333 b 565 744 289 636 407 744 b 785 672 634 744 715 719 l 785 931 b 514 985 710 971 599 985 b 14 485 226 985 14 777 b 514 -15 14 192 226 -15 b 824 84 634 -15 740 21 l 824 576 l 457 576 z "},"H":{"ha":806,"x_min":0,"x_max":0,"o":"m 498 969 l 498 596 l 306 596 l 306 969 l 49 969 l 49 0 l 306 0 l 306 356 l 498 356 l 498 0 l 756 0 l 756 969 z "},"I":{"ha":356,"x_min":0,"x_max":0,"o":"m 306 0 l 306 969 l 49 969 l 49 0 z "},"J":{"ha":471,"x_min":0,"x_max":0,"o":"m 172 969 l 172 302 b 95 225 172 259 138 225 b 20 248 88 225 56 224 l -6 0 b 95 -15 26 -10 60 -15 b 430 319 361 -15 430 169 l 430 969 z "},"K":{"ha":771,"x_min":0,"x_max":0,"o":"m 782 0 l 494 540 l 742 969 l 741 970 l 465 970 l 306 696 l 306 969 l 49 969 l 49 0 l 306 0 l 306 345 l 490 0 z "},"L":{"ha":572,"x_min":0,"x_max":0,"o":"m 306 240 l 306 969 l 49 969 l 49 0 l 575 0 l 575 240 z "},"M":{"ha":1040,"x_min":0,"x_max":0,"o":"m 1009 0 l 961 969 l 704 969 l 520 565 l 336 969 l 78 969 l 31 0 l 288 0 l 310 446 l 520 -15 l 730 446 l 752 0 z "},"N":{"ha":835,"x_min":0,"x_max":0,"o":"m 528 969 l 528 531 l 306 969 l 49 969 l 49 0 l 306 0 l 306 438 l 528 0 l 528 0 l 786 0 l 786 969 z "},"O":{"ha":1028,"x_min":0,"x_max":0,"o":"m 514 985 b 14 485 226 985 14 777 b 514 -15 14 192 226 -15 b 1014 485 802 -15 1014 192 b 514 985 1014 777 802 985 z m 514 225 b 289 485 384 225 289 333 b 514 744 289 636 384 744 b 739 485 643 744 739 636 b 514 225 739 333 643 225 z "},"P":{"ha":713,"x_min":0,"x_max":0,"o":"m 350 969 l 49 969 l 49 0 l 306 0 l 306 253 l 348 253 b 706 611 545 253 706 414 b 350 969 706 809 546 969 z m 313 494 b 312 494 313 494 312 494 l 306 494 l 306 729 l 313 729 b 431 611 378 729 431 676 b 313 494 431 546 378 494 z "},"Q":{"ha":1049,"x_min":0,"x_max":0,"o":"m 1022 217 b 951 231 996 217 973 222 b 1014 485 991 304 1014 390 b 514 985 1014 777 802 985 b 14 485 226 985 14 777 b 514 -15 14 192 226 -15 b 782 56 615 -15 706 10 b 1022 -15 839 14 914 -15 z m 289 485 b 514 744 289 636 384 744 b 739 485 643 744 739 636 b 736 439 739 469 738 454 b 445 567 669 508 583 567 l 445 335 b 611 248 520 335 568 298 b 514 225 582 233 549 225 b 289 485 384 225 289 333 z "},"R":{"ha":729,"x_min":0,"x_max":0,"o":"m 719 0 l 561 399 b 694 655 641 456 694 549 b 384 969 694 827 556 969 l 49 969 l 49 0 l 306 0 l 306 342 l 326 342 l 462 0 z m 306 729 l 346 729 b 419 655 386 729 419 696 b 346 582 419 615 386 582 l 306 582 z "},"S":{"ha":542,"x_min":0,"x_max":0,"o":"m 383 744 b 489 700 420 744 457 726 l 489 964 b 313 985 456 974 379 985 b 35 729 133 985 35 882 b 211 291 35 525 211 391 b 139 225 211 247 176 225 b 44 256 103 225 70 233 l 21 8 b 202 -15 67 -7 140 -15 b 522 250 394 -15 522 137 b 327 691 522 470 327 584 b 383 744 327 725 355 744 z "},"T":{"ha":578,"x_min":0,"x_max":0,"o":"m 579 969 l -1 969 l -1 729 l 160 729 l 160 0 l 418 0 l 418 729 l 579 729 z "},"U":{"ha":747,"x_min":0,"x_max":0,"o":"m 450 969 l 450 302 b 373 225 450 259 416 225 b 296 302 331 225 296 259 l 296 969 l 39 969 l 39 319 b 373 -15 39 169 148 -15 b 708 319 598 -15 708 169 l 708 969 z "},"V":{"ha":794,"x_min":0,"x_max":0,"o":"m 804 969 l 546 969 l 397 450 l 248 969 l -10 969 l 268 1 l 268 0 l 526 0 l 526 1 z "},"W":{"ha":1069,"x_min":0,"x_max":0,"o":"m 800 969 l 738 485 l 534 985 l 330 485 l 269 969 l 11 969 l 135 0 l 392 0 l 534 348 l 676 0 l 934 0 l 1058 969 z "},"X":{"ha":825,"x_min":0,"x_max":0,"o":"m 573 489 l 813 969 l 540 969 l 436 749 l 320 969 l 29 969 l 258 535 l -8 -1 l 264 -1 l 395 275 l 540 0 l 831 0 z "},"Y":{"ha":750,"x_min":0,"x_max":0,"o":"m 500 969 l 384 733 l 269 969 l -18 969 l 246 431 l 246 0 l 504 0 l 504 431 l 768 969 z "},"Ÿ":{"ha":750,"x_min":0,"x_max":0,"o":"m 500 969 l 384 733 l 269 969 l -18 969 l 246 431 l 246 0 l 504 0 l 504 431 l 768 969 z "},"Z":{"ha":708,"x_min":0,"x_max":0,"o":"m 382 240 l 681 969 l 36 969 l 36 729 l 304 729 l 4 0 l 4 0 l 701 0 l 701 240 z "},"[":{"ha":390,"x_min":0,"x_max":0,"o":"m 371 950 l 371 1073 l 49 1073 l 49 -104 l 371 -104 l 371 19 l 250 19 l 250 950 z "},"\\":{"ha":561,"x_min":0,"x_max":0,"o":"m 193 969 l 69 969 l 368 0 l 492 0 z "},"]":{"ha":390,"x_min":0,"x_max":0,"o":"m 18 1073 l 18 950 l 139 950 l 139 19 l 18 19 l 18 -104 l 341 -104 l 341 1073 z "},"^":{"ha":447,"x_min":0,"x_max":0,"o":"m 415 797 l 288 985 l 158 985 l 31 797 l 26 765 l 194 765 l 223 913 l 252 765 l 420 765 z "},"_":{"ha":447,"x_min":0,"x_max":0,"o":"m 446 -124 l 446 0 l 0 0 l 0 -124 z "},"`":{"ha":290,"x_min":0,"x_max":0,"o":"m 26 946 l 156 642 l 253 688 l 251 985 z "},"a":{"ha":797,"x_min":0,"x_max":0,"o":"m 547 0 l 805 0 l 527 968 l 527 969 l 269 969 l 270 968 l -8 0 l 249 0 l 276 95 l 520 95 z m 345 335 l 398 519 l 451 335 z "},"b":{"ha":747,"x_min":0,"x_max":0,"o":"m 642 508 b 702 684 680 556 702 618 b 364 969 702 841 600 969 l 49 969 l 49 0 l 368 0 b 725 300 587 0 725 134 b 642 508 725 381 693 454 z m 306 729 l 375 729 b 439 665 411 729 439 700 b 375 600 439 629 411 600 l 306 600 z m 371 240 l 306 240 l 306 399 l 371 399 b 450 319 415 399 450 363 b 371 240 450 276 415 240 z "},"c":{"ha":689,"x_min":0,"x_max":0,"o":"m 649 256 b 514 225 607 235 565 225 b 289 485 384 225 289 333 b 514 744 289 636 384 744 b 647 714 565 744 604 732 l 647 969 b 514 985 605 979 560 985 b 14 485 226 985 14 777 b 514 -15 14 192 226 -15 b 675 8 571 -15 625 -7 l 649 256 z "},"d":{"ha":754,"x_min":0,"x_max":0,"o":"m 739 485 b 306 969 739 857 472 969 l 49 969 l 49 0 l 306 0 b 739 485 472 0 739 112 z m 306 240 l 306 729 b 464 485 395 729 464 628 b 306 240 464 341 395 240 z "},"e":{"ha":611,"x_min":0,"x_max":0,"o":"m 306 240 l 306 376 l 501 376 l 501 616 l 306 616 l 306 729 l 575 729 l 575 969 l 49 969 l 49 0 l 585 0 l 585 240 z "},"f":{"ha":583,"x_min":0,"x_max":0,"o":"m 575 729 l 575 969 l 49 969 l 49 0 l 306 0 l 306 364 l 501 364 l 501 605 l 306 605 l 306 729 z "},"g":{"ha":860,"x_min":0,"x_max":0,"o":"m 457 339 l 567 339 l 567 231 b 514 225 550 227 532 225 b 289 485 384 225 289 333 b 565 744 289 636 407 744 b 785 672 634 744 715 719 l 785 931 b 514 985 710 971 599 985 b 14 485 226 985 14 777 b 514 -15 14 192 226 -15 b 824 84 634 -15 740 21 l 824 576 l 457 576 z "},"h":{"ha":806,"x_min":0,"x_max":0,"o":"m 498 969 l 498 596 l 306 596 l 306 969 l 49 969 l 49 0 l 306 0 l 306 356 l 498 356 l 498 0 l 756 0 l 756 969 z "},"i":{"ha":356,"x_min":0,"x_max":0,"o":"m 306 0 l 306 969 l 49 969 l 49 0 z "},"j":{"ha":471,"x_min":0,"x_max":0,"o":"m 172 969 l 172 302 b 95 225 172 259 138 225 b 20 248 88 225 56 224 l -6 0 b 95 -15 26 -10 60 -15 b 430 319 361 -15 430 169 l 430 969 z "},"k":{"ha":771,"x_min":0,"x_max":0,"o":"m 782 0 l 494 540 l 742 969 l 741 970 l 465 970 l 306 696 l 306 969 l 49 969 l 49 0 l 306 0 l 306 345 l 490 0 z "},"l":{"ha":572,"x_min":0,"x_max":0,"o":"m 306 240 l 306 969 l 49 969 l 49 0 l 575 0 l 575 240 z "},"m":{"ha":1040,"x_min":0,"x_max":0,"o":"m 1009 0 l 961 969 l 704 969 l 520 565 l 336 969 l 78 969 l 31 0 l 288 0 l 310 446 l 520 -15 l 730 446 l 752 0 z "},"n":{"ha":835,"x_min":0,"x_max":0,"o":"m 528 969 l 528 531 l 306 969 l 49 969 l 49 0 l 306 0 l 306 438 l 528 0 l 528 0 l 786 0 l 786 969 z "},"o":{"ha":1028,"x_min":0,"x_max":0,"o":"m 514 985 b 14 485 226 985 14 777 b 514 -15 14 192 226 -15 b 1014 485 802 -15 1014 192 b 514 985 1014 777 802 985 z m 514 225 b 289 485 384 225 289 333 b 514 744 289 636 384 744 b 739 485 643 744 739 636 b 514 225 739 333 643 225 z "},"p":{"ha":713,"x_min":0,"x_max":0,"o":"m 350 969 l 49 969 l 49 0 l 306 0 l 306 253 l 348 253 b 706 611 545 253 706 414 b 350 969 706 809 546 969 z m 313 494 b 312 494 313 494 312 494 l 306 494 l 306 729 l 313 729 b 431 611 378 729 431 676 b 313 494 431 546 378 494 z "},"q":{"ha":1049,"x_min":0,"x_max":0,"o":"m 1022 217 b 951 231 996 217 973 222 b 1014 485 991 304 1014 390 b 514 985 1014 777 802 985 b 14 485 226 985 14 777 b 514 -15 14 192 226 -15 b 782 56 615 -15 706 10 b 1022 -15 839 14 914 -15 z m 289 485 b 514 744 289 636 384 744 b 739 485 643 744 739 636 b 736 439 739 469 738 454 b 445 567 669 508 583 567 l 445 335 b 611 248 520 335 568 298 b 514 225 582 233 549 225 b 289 485 384 225 289 333 z "},"r":{"ha":729,"x_min":0,"x_max":0,"o":"m 719 0 l 561 399 b 694 655 641 456 694 549 b 384 969 694 827 556 969 l 49 969 l 49 0 l 306 0 l 306 342 l 326 342 l 462 0 z m 306 729 l 346 729 b 419 655 386 729 419 696 b 346 582 419 615 386 582 l 306 582 z "},"s":{"ha":542,"x_min":0,"x_max":0,"o":"m 383 744 b 489 700 420 744 457 726 l 489 964 b 313 985 456 974 379 985 b 35 729 133 985 35 882 b 211 291 35 525 211 391 b 139 225 211 247 176 225 b 44 256 103 225 70 233 l 21 8 b 202 -15 67 -7 140 -15 b 522 250 394 -15 522 137 b 327 691 522 470 327 584 b 383 744 327 725 355 744 z "},"t":{"ha":578,"x_min":0,"x_max":0,"o":"m 579 969 l -1 969 l -1 729 l 160 729 l 160 0 l 418 0 l 418 729 l 579 729 z "},"u":{"ha":747,"x_min":0,"x_max":0,"o":"m 450 969 l 450 302 b 373 225 450 259 416 225 b 296 302 331 225 296 259 l 296 969 l 39 969 l 39 319 b 373 -15 39 169 148 -15 b 708 319 598 -15 708 169 l 708 969 z "},"v":{"ha":794,"x_min":0,"x_max":0,"o":"m 804 969 l 546 969 l 397 450 l 248 969 l -10 969 l 268 1 l 268 0 l 526 0 l 526 1 z "},"w":{"ha":1069,"x_min":0,"x_max":0,"o":"m 800 969 l 738 485 l 534 985 l 330 485 l 269 969 l 11 969 l 135 0 l 392 0 l 534 348 l 676 0 l 934 0 l 1058 969 z "},"x":{"ha":825,"x_min":0,"x_max":0,"o":"m 573 489 l 813 969 l 540 969 l 436 749 l 320 969 l 29 969 l 258 535 l -8 -1 l 264 -1 l 395 275 l 540 0 l 831 0 z "},"y":{"ha":750,"x_min":0,"x_max":0,"o":"m 500 969 l 384 733 l 269 969 l -18 969 l 246 431 l 246 0 l 504 0 l 504 431 l 768 969 z "},"z":{"ha":708,"x_min":0,"x_max":0,"o":"m 382 240 l 681 969 l 36 969 l 36 729 l 304 729 l 4 0 l 4 0 l 701 0 l 701 240 z "},"{":{"ha":446,"x_min":0,"x_max":0,"o":"m 418 1073 l 342 1073 b 124 836 194 1073 124 982 b 31 546 124 669 128 546 l 31 423 b 124 133 128 423 124 300 b 342 -104 124 -13 194 -104 l 418 -104 l 418 19 b 344 221 330 19 344 118 b 201 485 344 322 332 442 b 344 748 332 527 344 647 b 418 950 344 851 330 950 z "},"|":{"ha":222,"x_min":0,"x_max":0,"o":"m 172 -111 l 172 1080 l 49 1080 l 49 -111 z "},"}":{"ha":446,"x_min":0,"x_max":0,"o":"m 321 836 b 103 1073 321 982 252 1073 l 28 1073 l 28 950 b 101 748 115 950 101 851 b 245 485 101 647 113 527 b 101 221 113 442 101 322 b 28 19 101 118 115 19 l 28 -104 l 103 -104 b 321 133 252 -104 321 -13 b 415 423 321 300 318 423 l 415 546 b 321 836 318 546 321 669 z "}," ":{"ha":422,"x_min":0,"x_max":0,"o":""},"­":{"ha":0,"x_min":0,"x_max":0,"o":""},"´":{"ha":290,"x_min":0,"x_max":0,"o":"m 38 985 l 36 688 l 133 642 l 263 946 z "},"À":{"ha":794,"x_min":0,"x_max":0,"o":"m 526 968 l 526 969 l 268 969 l 268 968 l -10 0 l 248 0 l 275 95 l 519 95 l 546 0 l 804 0 l 526 968 z m 344 335 l 397 519 l 450 335 z m 521 1034 l 479 1242 l 272 1242 l 417 1034 z "},"Á":{"ha":794,"x_min":0,"x_max":0,"o":"m 526 968 l 526 969 l 268 969 l 268 968 l -10 0 l 248 0 l 275 95 l 519 95 l 546 0 l 804 0 z m 344 335 l 397 519 l 450 335 z m 554 1242 l 347 1242 l 305 1034 l 409 1034 z "},"Â":{"ha":794,"x_min":0,"x_max":0,"o":"m 526 968 l 526 969 l 268 969 l 268 968 l -10 0 l 248 0 l 275 95 l 519 95 l 546 0 l 804 0 l 526 968 z m 344 335 l 397 519 l 450 335 z m 398 1130 l 466 1034 l 595 1097 l 437 1242 l 357 1242 l 199 1097 l 328 1034 z "},"Ã":{"ha":794,"x_min":0,"x_max":0,"o":"m 526 968 l 526 969 l 268 969 l 268 968 l -10 0 l 248 0 l 275 95 l 519 95 l 546 0 l 804 0 z m 344 335 l 397 519 l 450 335 z m 329 1112 b 487 1051 386 1112 421 1051 b 555 1103 520 1051 540 1082 l 555 1204 b 487 1166 539 1183 523 1166 b 329 1226 439 1166 394 1226 b 239 1161 272 1226 250 1188 l 239 1060 b 329 1112 264 1089 290 1112 z "},"Ä":{"ha":794,"x_min":0,"x_max":0,"o":"m 526 968 l 526 969 l 268 969 l 268 968 l -10 0 l 248 0 l 275 95 l 519 95 l 546 0 l 804 0 l 526 968 z m 344 335 l 397 519 l 450 335 z m 278 1034 b 380 1138 335 1034 380 1081 b 278 1242 380 1194 335 1242 b 174 1138 221 1242 174 1194 b 278 1034 174 1081 221 1034 z m 516 1034 b 620 1138 573 1034 620 1081 b 516 1242 620 1194 573 1242 b 413 1138 459 1242 413 1194 b 516 1034 413 1081 459 1034 z "},"Å":{"ha":794,"x_min":0,"x_max":0,"o":"m 526 968 l 526 969 l 268 969 l 268 968 l -10 0 l 248 0 l 275 95 l 519 95 l 546 0 l 804 0 z m 344 335 l 397 519 l 450 335 z m 398 1000 b 535 1138 473 1000 535 1062 b 398 1275 535 1213 473 1275 b 259 1138 322 1275 259 1213 b 398 1000 259 1062 322 1000 z m 398 1191 b 450 1138 426 1191 450 1168 b 398 1084 450 1108 426 1084 b 344 1138 368 1084 344 1108 b 398 1191 344 1168 368 1191 z "},"Æ":{"ha":1043,"x_min":0,"x_max":0,"o":"m 738 240 l 738 376 l 933 376 l 933 616 l 738 616 l 738 729 l 1007 729 l 1007 969 l 480 969 l -17 0 l 261 0 l 305 86 l 480 86 l 480 0 l 1017 0 l 1017 240 l 738 240 z m 480 290 l 410 290 l 480 427 z "},"Ç":{"ha":689,"x_min":0,"x_max":0,"o":"m 409 -26 l 414 -7 b 514 -15 446 -12 479 -15 b 675 8 571 -15 625 -7 l 649 256 b 514 225 607 235 565 225 b 289 485 384 225 289 333 b 514 744 289 636 384 744 b 647 714 565 744 604 732 l 647 969 b 514 985 605 979 560 985 b 14 485 226 985 14 777 b 315 21 14 265 133 93 l 260 -159 l 368 -159 b 406 -130 372 -149 380 -130 b 448 -188 429 -130 448 -152 b 392 -245 448 -223 426 -245 b 338 -206 367 -245 347 -230 l 245 -260 b 392 -348 272 -314 330 -348 b 552 -188 490 -348 552 -286 b 409 -26 552 -95 497 -34 z "},"È":{"ha":611,"x_min":0,"x_max":0,"o":"m 306 240 l 306 376 l 501 376 l 501 616 l 306 616 l 306 729 l 575 729 l 575 969 l 49 969 l 49 0 l 585 0 l 585 240 z m 442 1034 l 399 1242 l 192 1242 l 337 1034 z "},"É":{"ha":611,"x_min":0,"x_max":0,"o":"m 306 240 l 306 376 l 501 376 l 501 616 l 306 616 l 306 729 l 575 729 l 575 969 l 49 969 l 49 0 l 585 0 l 585 240 z m 442 1242 l 235 1242 l 192 1034 l 296 1034 z "},"Ê":{"ha":611,"x_min":0,"x_max":0,"o":"m 306 240 l 306 376 l 501 376 l 501 616 l 306 616 l 306 729 l 575 729 l 575 969 l 49 969 l 49 0 l 585 0 l 585 240 z m 318 1130 l 386 1034 l 515 1097 l 357 1242 l 277 1242 l 119 1097 l 248 1034 z "},"Ë":{"ha":611,"x_min":0,"x_max":0,"o":"m 306 240 l 306 376 l 501 376 l 501 616 l 306 616 l 306 729 l 575 729 l 575 969 l 49 969 l 49 0 l 585 0 l 585 240 z m 198 1034 b 300 1138 255 1034 300 1081 b 198 1242 300 1194 255 1242 b 94 1138 141 1242 94 1194 b 198 1034 94 1081 141 1034 z m 436 1034 b 540 1138 493 1034 540 1081 b 436 1242 540 1194 493 1242 b 334 1138 379 1242 334 1194 b 436 1034 334 1081 379 1034 z "},"Ì":{"ha":356,"x_min":0,"x_max":0,"o":"m 306 0 l 306 969 l 49 969 l 49 0 z m 302 1034 l 259 1242 l 53 1242 l 198 1034 z "},"Í":{"ha":356,"x_min":0,"x_max":0,"o":"m 306 0 l 306 969 l 49 969 l 49 0 z m 302 1242 l 95 1242 l 53 1034 l 157 1034 z "},"Î":{"ha":356,"x_min":0,"x_max":0,"o":"m 306 0 l 306 969 l 48 969 l 48 0 z m 178 1130 l 246 1034 l 375 1097 l 217 1242 l 137 1242 l -21 1097 l 108 1034 z "},"Ï":{"ha":356,"x_min":0,"x_max":0,"o":"m 306 0 l 306 969 l 49 969 l 49 0 z m 161 1138 b 58 1242 161 1194 115 1242 b -46 1138 1 1242 -46 1194 b 58 1034 -46 1081 1 1034 b 161 1138 115 1034 161 1081 z m 296 1242 b 194 1138 240 1242 194 1194 b 296 1034 194 1081 240 1034 b 400 1138 353 1034 400 1081 b 296 1242 400 1194 353 1242 z "},"Ð":{"ha":782,"x_min":0,"x_max":0,"o":"m 334 969 l 76 969 l 76 546 l 17 546 l 17 423 l 76 423 l 76 0 l 334 0 b 766 485 499 0 766 112 b 334 969 766 857 499 969 z m 334 240 l 334 423 l 432 423 l 432 546 l 334 546 l 334 729 b 491 485 422 729 491 628 b 334 240 491 341 422 240 z "},"Ñ":{"ha":835,"x_min":0,"x_max":0,"o":"m 528 969 l 528 531 l 306 969 l 49 969 l 49 0 l 306 0 l 306 438 l 528 0 l 528 0 l 786 0 l 786 969 z m 349 1112 b 507 1051 406 1112 441 1051 b 575 1103 540 1051 561 1082 l 575 1204 b 507 1166 559 1183 543 1166 b 349 1226 460 1166 414 1226 b 259 1161 293 1226 270 1188 l 259 1060 b 349 1112 285 1089 310 1112 z "},"Ò":{"ha":1028,"x_min":0,"x_max":0,"o":"m 514 985 b 14 485 226 985 14 777 b 514 -15 14 192 226 -15 b 1014 485 802 -15 1014 192 b 514 985 1014 777 802 985 z m 514 225 b 289 485 384 225 289 333 b 514 744 289 636 384 744 b 739 485 643 744 739 636 b 514 225 739 333 643 225 z m 638 1034 l 596 1242 l 389 1242 l 534 1034 z "},"Ó":{"ha":1028,"x_min":0,"x_max":0,"o":"m 514 985 b 14 485 226 985 14 777 b 514 -15 14 192 226 -15 b 1014 485 802 -15 1014 192 b 514 985 1014 777 802 985 z m 514 225 b 289 485 384 225 289 333 b 514 744 289 636 384 744 b 739 485 643 744 739 636 b 514 225 739 333 643 225 z m 638 1242 l 432 1242 l 389 1034 l 493 1034 z "},"Ô":{"ha":1028,"x_min":0,"x_max":0,"o":"m 514 985 b 14 485 226 985 14 777 b 514 -15 14 192 226 -15 b 1014 485 802 -15 1014 192 b 514 985 1014 777 802 985 z m 514 225 b 289 485 384 225 289 333 b 514 744 289 636 384 744 b 739 485 643 744 739 636 b 514 225 739 333 643 225 z m 515 1130 l 582 1034 l 712 1097 l 554 1242 l 474 1242 l 316 1097 l 445 1034 z "},"Õ":{"ha":1028,"x_min":0,"x_max":0,"o":"m 514 985 b 14 485 226 985 14 777 b 514 -15 14 192 226 -15 b 1014 485 802 -15 1014 192 b 514 985 1014 777 802 985 z m 514 225 b 289 485 384 225 289 333 b 514 744 289 636 384 744 b 739 485 643 744 739 636 b 514 225 739 333 643 225 z m 446 1112 b 604 1051 503 1112 537 1051 b 672 1103 637 1051 657 1082 l 672 1204 b 604 1166 656 1183 640 1166 b 446 1226 556 1166 511 1226 b 356 1161 389 1226 367 1188 l 356 1060 b 446 1112 381 1089 407 1112 z "},"Ö":{"ha":1028,"x_min":0,"x_max":0,"o":"m 514 985 b 14 485 226 985 14 777 b 514 -15 14 192 226 -15 b 1014 485 802 -15 1014 192 b 514 985 1014 777 802 985 z m 514 225 b 289 485 384 225 289 333 b 514 744 289 636 384 744 b 739 485 643 744 739 636 b 514 225 739 333 643 225 z m 395 1034 b 497 1138 452 1034 497 1081 b 395 1242 497 1194 452 1242 b 291 1138 338 1242 291 1194 b 395 1034 291 1081 338 1034 z m 633 1034 b 737 1138 690 1034 737 1081 b 633 1242 737 1194 690 1242 b 530 1138 576 1242 530 1194 b 633 1034 530 1081 576 1034 z "},"×":{"ha":628,"x_min":0,"x_max":0,"o":"m 594 622 l 451 765 l 314 627 l 176 765 l 33 622 l 171 485 l 33 347 l 176 204 l 314 342 l 451 204 l 594 347 l 456 485 z "},"Ø":{"ha":1028,"x_min":0,"x_max":0,"o":"m 723 944 l 748 1023 l 625 1023 l 610 976 b 514 985 579 982 547 985 b 14 485 226 985 14 777 b 305 25 14 269 129 100 l 279 -54 l 403 -54 l 418 -7 b 514 -15 449 -13 481 -15 b 1014 485 802 -15 1014 192 b 723 944 1014 700 899 869 z m 383 269 b 289 485 325 314 289 391 b 514 744 289 636 384 744 b 535 743 521 744 528 744 l 383 269 z m 514 225 b 493 226 507 225 500 225 l 645 700 b 739 485 703 655 739 578 b 514 225 739 333 643 225 z "},"Ù":{"ha":747,"x_min":0,"x_max":0,"o":"m 450 302 b 373 225 450 259 416 225 b 296 302 331 225 296 259 l 296 969 l 39 969 l 39 319 b 373 -15 39 169 148 -15 b 708 319 598 -15 708 169 l 708 969 l 450 969 z m 498 1034 l 455 1242 l 249 1242 l 394 1034 z "},"Ú":{"ha":747,"x_min":0,"x_max":0,"o":"m 450 302 b 373 225 450 259 416 225 b 296 302 331 225 296 259 l 296 969 l 39 969 l 39 319 b 373 -15 39 169 148 -15 b 708 319 598 -15 708 169 l 708 969 l 450 969 z m 498 1242 l 291 1242 l 249 1034 l 353 1034 z "},"Û":{"ha":747,"x_min":0,"x_max":0,"o":"m 450 302 b 373 225 450 259 416 225 b 296 302 331 225 296 259 l 296 969 l 39 969 l 39 319 b 373 -15 39 169 148 -15 b 708 319 598 -15 708 169 l 708 969 l 450 969 z m 374 1130 l 442 1034 l 571 1097 l 414 1242 l 333 1242 l 175 1097 l 305 1034 z "},"Ü":{"ha":747,"x_min":0,"x_max":0,"o":"m 450 302 b 373 225 450 259 416 225 b 296 302 331 225 296 259 l 296 969 l 39 969 l 39 319 b 373 -15 39 169 148 -15 b 708 319 598 -15 708 169 l 708 969 l 450 969 z m 254 1034 b 357 1138 311 1034 357 1081 b 254 1242 357 1194 311 1242 b 150 1138 197 1242 150 1194 b 254 1034 150 1081 197 1034 z m 492 1034 b 597 1138 549 1034 597 1081 b 492 1242 597 1194 549 1242 b 390 1138 436 1242 390 1194 b 492 1034 390 1081 436 1034 z "},"Ý":{"ha":753,"x_min":0,"x_max":0,"o":"m 501 969 l 386 733 l 270 969 l -17 969 l 247 431 l 247 0 l 505 0 l 505 431 l 769 969 z m 549 1242 l 343 1242 l 300 1034 l 404 1034 z "},"à":{"ha":794,"x_min":0,"x_max":0,"o":"m 526 968 l 526 969 l 268 969 l 268 968 l -10 0 l 248 0 l 275 95 l 519 95 l 546 0 l 804 0 l 526 968 z m 344 335 l 397 519 l 450 335 z m 521 1034 l 479 1242 l 272 1242 l 417 1034 z "},"á":{"ha":794,"x_min":0,"x_max":0,"o":"m 526 968 l 526 969 l 268 969 l 268 968 l -10 0 l 248 0 l 275 95 l 519 95 l 546 0 l 804 0 z m 344 335 l 397 519 l 450 335 z m 554 1242 l 347 1242 l 305 1034 l 409 1034 z "},"â":{"ha":794,"x_min":0,"x_max":0,"o":"m 526 968 l 526 969 l 268 969 l 268 968 l -10 0 l 248 0 l 275 95 l 519 95 l 546 0 l 804 0 l 526 968 z m 344 335 l 397 519 l 450 335 z m 398 1130 l 466 1034 l 595 1097 l 437 1242 l 357 1242 l 199 1097 l 328 1034 z "},"ã":{"ha":794,"x_min":0,"x_max":0,"o":"m 526 968 l 526 969 l 268 969 l 268 968 l -10 0 l 248 0 l 275 95 l 519 95 l 546 0 l 804 0 z m 344 335 l 397 519 l 450 335 z m 329 1112 b 487 1051 386 1112 421 1051 b 555 1103 520 1051 540 1082 l 555 1204 b 487 1166 539 1183 523 1166 b 329 1226 439 1166 394 1226 b 239 1161 272 1226 250 1188 l 239 1060 b 329 1112 264 1089 290 1112 z "},"ä":{"ha":794,"x_min":0,"x_max":0,"o":"m 526 968 l 526 969 l 268 969 l 268 968 l -10 0 l 248 0 l 275 95 l 519 95 l 546 0 l 804 0 l 526 968 z m 344 335 l 397 519 l 450 335 z m 278 1034 b 380 1138 335 1034 380 1081 b 278 1242 380 1194 335 1242 b 174 1138 221 1242 174 1194 b 278 1034 174 1081 221 1034 z m 516 1034 b 620 1138 573 1034 620 1081 b 516 1242 620 1194 573 1242 b 413 1138 459 1242 413 1194 b 516 1034 413 1081 459 1034 z "},"å":{"ha":794,"x_min":0,"x_max":0,"o":"m 526 968 l 526 969 l 268 969 l 268 968 l -10 0 l 248 0 l 275 95 l 519 95 l 546 0 l 804 0 z m 344 335 l 397 519 l 450 335 z m 398 1000 b 535 1138 473 1000 535 1062 b 398 1275 535 1213 473 1275 b 259 1138 322 1275 259 1213 b 398 1000 259 1062 322 1000 z m 398 1191 b 450 1138 426 1191 450 1168 b 398 1084 450 1108 426 1084 b 344 1138 368 1084 344 1108 b 398 1191 344 1168 368 1191 z "},"æ":{"ha":1043,"x_min":0,"x_max":0,"o":"m 738 240 l 738 376 l 933 376 l 933 616 l 738 616 l 738 729 l 1007 729 l 1007 969 l 480 969 l -17 0 l 261 0 l 305 86 l 480 86 l 480 0 l 1017 0 l 1017 240 l 738 240 z m 480 290 l 410 290 l 480 427 z "},"ç":{"ha":689,"x_min":0,"x_max":0,"o":"m 409 -26 l 414 -7 b 514 -15 446 -12 479 -15 b 675 8 571 -15 625 -7 l 649 256 b 514 225 607 235 565 225 b 289 485 384 225 289 333 b 514 744 289 636 384 744 b 647 714 565 744 604 732 l 647 969 b 514 985 605 979 560 985 b 14 485 226 985 14 777 b 315 21 14 265 133 93 l 260 -159 l 368 -159 b 406 -130 372 -149 380 -130 b 448 -188 429 -130 448 -152 b 392 -245 448 -223 426 -245 b 338 -206 367 -245 347 -230 l 245 -260 b 392 -348 272 -314 330 -348 b 552 -188 490 -348 552 -286 b 409 -26 552 -95 497 -34 z "},"è":{"ha":611,"x_min":0,"x_max":0,"o":"m 306 240 l 306 376 l 501 376 l 501 616 l 306 616 l 306 729 l 575 729 l 575 969 l 49 969 l 49 0 l 585 0 l 585 240 z m 442 1034 l 399 1242 l 192 1242 l 337 1034 z "},"é":{"ha":611,"x_min":0,"x_max":0,"o":"m 306 240 l 306 376 l 501 376 l 501 616 l 306 616 l 306 729 l 575 729 l 575 969 l 49 969 l 49 0 l 585 0 l 585 240 z m 442 1242 l 235 1242 l 192 1034 l 296 1034 z "},"ê":{"ha":611,"x_min":0,"x_max":0,"o":"m 306 240 l 306 376 l 501 376 l 501 616 l 306 616 l 306 729 l 575 729 l 575 969 l 49 969 l 49 0 l 585 0 l 585 240 z m 318 1130 l 386 1034 l 515 1097 l 357 1242 l 277 1242 l 119 1097 l 248 1034 z "},"ë":{"ha":611,"x_min":0,"x_max":0,"o":"m 306 240 l 306 376 l 501 376 l 501 616 l 306 616 l 306 729 l 575 729 l 575 969 l 49 969 l 49 0 l 585 0 l 585 240 z m 198 1034 b 300 1138 255 1034 300 1081 b 198 1242 300 1194 255 1242 b 94 1138 141 1242 94 1194 b 198 1034 94 1081 141 1034 z m 436 1034 b 540 1138 493 1034 540 1081 b 436 1242 540 1194 493 1242 b 334 1138 379 1242 334 1194 b 436 1034 334 1081 379 1034 z "},"ì":{"ha":356,"x_min":0,"x_max":0,"o":"m 306 0 l 306 969 l 49 969 l 49 0 z m 302 1034 l 259 1242 l 53 1242 l 198 1034 z "},"í":{"ha":356,"x_min":0,"x_max":0,"o":"m 306 0 l 306 969 l 49 969 l 49 0 z m 302 1242 l 95 1242 l 53 1034 l 157 1034 z "},"î":{"ha":356,"x_min":0,"x_max":0,"o":"m 306 0 l 306 969 l 48 969 l 48 0 z m 178 1130 l 246 1034 l 375 1097 l 217 1242 l 137 1242 l -21 1097 l 108 1034 z "},"ï":{"ha":356,"x_min":0,"x_max":0,"o":"m 306 0 l 306 969 l 49 969 l 49 0 z m 161 1138 b 58 1242 161 1194 115 1242 b -46 1138 1 1242 -46 1194 b 58 1034 -46 1081 1 1034 b 161 1138 115 1034 161 1081 z m 296 1242 b 194 1138 240 1242 194 1194 b 296 1034 194 1081 240 1034 b 400 1138 353 1034 400 1081 b 296 1242 400 1194 353 1242 z "},"ñ":{"ha":835,"x_min":0,"x_max":0,"o":"m 528 969 l 528 531 l 306 969 l 49 969 l 49 0 l 306 0 l 306 438 l 528 0 l 528 0 l 786 0 l 786 969 z m 349 1112 b 507 1051 406 1112 441 1051 b 575 1103 540 1051 561 1082 l 575 1204 b 507 1166 559 1183 543 1166 b 349 1226 460 1166 414 1226 b 259 1161 293 1226 270 1188 l 259 1060 b 349 1112 285 1089 310 1112 z "},"ò":{"ha":1028,"x_min":0,"x_max":0,"o":"m 514 985 b 14 485 226 985 14 777 b 514 -15 14 192 226 -15 b 1014 485 802 -15 1014 192 b 514 985 1014 777 802 985 z m 514 225 b 289 485 384 225 289 333 b 514 744 289 636 384 744 b 739 485 643 744 739 636 b 514 225 739 333 643 225 z m 638 1034 l 596 1242 l 389 1242 l 534 1034 z "},"ó":{"ha":1028,"x_min":0,"x_max":0,"o":"m 514 985 b 14 485 226 985 14 777 b 514 -15 14 192 226 -15 b 1014 485 802 -15 1014 192 b 514 985 1014 777 802 985 z m 514 225 b 289 485 384 225 289 333 b 514 744 289 636 384 744 b 739 485 643 744 739 636 b 514 225 739 333 643 225 z m 638 1242 l 432 1242 l 389 1034 l 493 1034 z "},"ô":{"ha":1028,"x_min":0,"x_max":0,"o":"m 514 985 b 14 485 226 985 14 777 b 514 -15 14 192 226 -15 b 1014 485 802 -15 1014 192 b 514 985 1014 777 802 985 z m 514 225 b 289 485 384 225 289 333 b 514 744 289 636 384 744 b 739 485 643 744 739 636 b 514 225 739 333 643 225 z m 515 1130 l 582 1034 l 712 1097 l 554 1242 l 474 1242 l 316 1097 l 445 1034 z "},"õ":{"ha":1028,"x_min":0,"x_max":0,"o":"m 514 985 b 14 485 226 985 14 777 b 514 -15 14 192 226 -15 b 1014 485 802 -15 1014 192 b 514 985 1014 777 802 985 z m 514 225 b 289 485 384 225 289 333 b 514 744 289 636 384 744 b 739 485 643 744 739 636 b 514 225 739 333 643 225 z m 446 1112 b 604 1051 503 1112 537 1051 b 672 1103 637 1051 657 1082 l 672 1204 b 604 1166 656 1183 640 1166 b 446 1226 556 1166 511 1226 b 356 1161 389 1226 367 1188 l 356 1060 b 446 1112 381 1089 407 1112 z "},"ö":{"ha":1028,"x_min":0,"x_max":0,"o":"m 514 985 b 14 485 226 985 14 777 b 514 -15 14 192 226 -15 b 1014 485 802 -15 1014 192 b 514 985 1014 777 802 985 z m 514 225 b 289 485 384 225 289 333 b 514 744 289 636 384 744 b 739 485 643 744 739 636 b 514 225 739 333 643 225 z m 395 1034 b 497 1138 452 1034 497 1081 b 395 1242 497 1194 452 1242 b 291 1138 338 1242 291 1194 b 395 1034 291 1081 338 1034 z m 633 1034 b 737 1138 690 1034 737 1081 b 633 1242 737 1194 690 1242 b 530 1138 576 1242 530 1194 b 633 1034 530 1081 576 1034 z "},"÷":{"ha":503,"x_min":0,"x_max":0,"o":"m 474 423 l 474 546 l 28 546 l 28 423 z m 283 592 b 388 761 359 610 405 686 b 219 865 370 836 294 883 b 114 696 143 847 97 772 b 283 592 132 621 208 574 z m 350 141 b 350 340 405 196 405 285 b 152 340 295 395 207 395 b 152 141 97 285 97 196 b 350 141 207 87 295 87 z "},"ø":{"ha":1028,"x_min":0,"x_max":0,"o":"m 723 944 l 748 1023 l 625 1023 l 610 976 b 514 985 579 982 547 985 b 14 485 226 985 14 777 b 305 25 14 269 129 100 l 279 -54 l 403 -54 l 418 -7 b 514 -15 449 -13 481 -15 b 1014 485 802 -15 1014 192 b 723 944 1014 700 899 869 z m 383 269 b 289 485 325 314 289 391 b 514 744 289 636 384 744 b 535 743 521 744 528 744 l 383 269 z m 514 225 b 493 226 507 225 500 225 l 645 700 b 739 485 703 655 739 578 b 514 225 739 333 643 225 z "},"ù":{"ha":747,"x_min":0,"x_max":0,"o":"m 450 302 b 373 225 450 259 416 225 b 296 302 331 225 296 259 l 296 969 l 39 969 l 39 319 b 373 -15 39 169 148 -15 b 708 319 598 -15 708 169 l 708 969 l 450 969 z m 498 1034 l 455 1242 l 249 1242 l 394 1034 z "},"ú":{"ha":747,"x_min":0,"x_max":0,"o":"m 450 302 b 373 225 450 259 416 225 b 296 302 331 225 296 259 l 296 969 l 39 969 l 39 319 b 373 -15 39 169 148 -15 b 708 319 598 -15 708 169 l 708 969 l 450 969 z m 498 1242 l 291 1242 l 249 1034 l 353 1034 z "},"û":{"ha":747,"x_min":0,"x_max":0,"o":"m 450 302 b 373 225 450 259 416 225 b 296 302 331 225 296 259 l 296 969 l 39 969 l 39 319 b 373 -15 39 169 148 -15 b 708 319 598 -15 708 169 l 708 969 l 450 969 z m 374 1130 l 442 1034 l 571 1097 l 414 1242 l 333 1242 l 175 1097 l 305 1034 z "},"ü":{"ha":747,"x_min":0,"x_max":0,"o":"m 450 302 b 373 225 450 259 416 225 b 296 302 331 225 296 259 l 296 969 l 39 969 l 39 319 b 373 -15 39 169 148 -15 b 708 319 598 -15 708 169 l 708 969 l 450 969 z m 254 1034 b 357 1138 311 1034 357 1081 b 254 1242 357 1194 311 1242 b 150 1138 197 1242 150 1194 b 254 1034 150 1081 197 1034 z m 492 1034 b 597 1138 549 1034 597 1081 b 492 1242 597 1194 549 1242 b 390 1138 436 1242 390 1194 b 492 1034 390 1081 436 1034 z "},"ý":{"ha":753,"x_min":0,"x_max":0,"o":"m 501 969 l 386 733 l 270 969 l -17 969 l 247 431 l 247 0 l 505 0 l 505 431 l 769 969 z m 549 1242 l 343 1242 l 300 1034 l 404 1034 z "},"ÿ":{"ha":750,"x_min":0,"x_max":0,"o":"m 500 969 l 384 733 l 269 969 l -18 969 l 246 431 l 246 0 l 504 0 l 504 431 l 768 969 z m 256 1034 b 358 1138 312 1034 358 1081 b 256 1242 358 1194 312 1242 b 152 1138 199 1242 152 1194 b 256 1034 152 1081 199 1034 z m 494 1034 b 598 1138 551 1034 598 1081 b 494 1242 598 1194 551 1242 b 391 1138 437 1242 391 1194 b 494 1034 391 1081 437 1034 z "},"‘":{"ha":292,"x_min":0,"x_max":0,"o":"m 178 903 b 231 962 178 937 207 950 l 231 985 b 32 785 117 967 32 888 l 32 785 b 32 781 32 784 32 782 b 146 668 32 718 83 668 b 259 770 208 668 259 711 b 178 903 259 858 178 860 z "},"’":{"ha":292,"x_min":0,"x_max":0,"o":"m 259 871 b 146 985 259 934 208 985 b 32 883 83 985 32 941 b 113 749 32 794 113 792 b 60 690 113 715 84 702 l 60 668 b 259 867 174 685 259 765 l 259 867 b 259 871 259 868 259 870 z "},"“":{"ha":532,"x_min":0,"x_max":0,"o":"m 419 903 b 472 962 419 937 448 950 l 472 985 b 273 785 358 967 273 888 l 273 785 b 273 781 273 784 273 782 b 386 668 273 718 324 668 b 500 770 449 668 500 711 b 419 903 500 858 419 860 z m 178 903 b 231 962 178 937 207 950 l 231 985 b 32 785 117 967 32 888 l 32 785 b 32 781 32 784 32 782 b 146 668 32 718 83 668 b 259 770 208 668 259 711 b 178 903 259 858 178 860 z "},"”":{"ha":532,"x_min":0,"x_max":0,"o":"m 146 985 b 32 883 83 985 32 941 b 113 749 32 794 113 792 b 60 690 113 715 84 702 l 60 668 b 259 867 174 685 259 765 l 259 867 b 259 871 259 868 259 870 b 146 985 259 934 208 985 z m 500 871 b 386 985 500 934 449 985 b 273 883 324 985 273 941 b 354 749 273 794 354 792 b 301 690 354 715 325 702 l 301 668 b 500 867 414 685 500 765 l 500 867 b 500 871 500 868 500 870 z "}}}
